<svg id="visual" viewBox="0 0 900 600" width="900" height="600" xmlns="http://www.w3.org/2000/svg" xmlns:xlink="http://www.w3.org/1999/xlink" version="1.1"><rect x="0" y="0" width="900" height="600" fill="#001220"></rect><path d="M0 224L21.5 226.2C43 228.3 86 232.7 128.8 225.8C171.7 219 214.3 201 257.2 187.8C300 174.7 343 166.3 385.8 174C428.7 181.7 471.3 205.3 514.2 219.8C557 234.3 600 239.7 642.8 228.3C685.7 217 728.3 189 771.2 178.7C814 168.3 857 175.7 878.5 179.3L900 183L900 0L878.5 0C857 0 814 0 771.2 0C728.3 0 685.7 0 642.8 0C600 0 557 0 514.2 0C471.3 0 428.7 0 385.8 0C343 0 300 0 257.2 0C214.3 0 171.7 0 128.8 0C86 0 43 0 21.5 0L0 0Z" fill="#003a62"></path><path d="M0 133L21.5 132.2C43 131.3 86 129.7 128.8 135.8C171.7 142 214.3 156 257.2 168.2C300 180.3 343 190.7 385.8 184.7C428.7 178.7 471.3 156.3 514.2 150.5C557 144.7 600 155.3 642.8 156C685.7 156.7 728.3 147.3 771.2 151.2C814 155 857 172 878.5 180.5L900 189L900 0L878.5 0C857 0 814 0 771.2 0C728.3 0 685.7 0 642.8 0C600 0 557 0 514.2 0C471.3 0 428.7 0 385.8 0C343 0 300 0 257.2 0C214.3 0 171.7 0 128.8 0C86 0 43 0 21.5 0L0 0Z" fill="#012640"></path><path d="M0 145L21.5 138.2C43 131.3 86 117.7 128.8 118.2C171.7 118.7 214.3 133.3 257.2 132C300 130.7 343 113.3 385.8 106C428.7 98.7 471.3 101.3 514.2 108.5C557 115.7 600 127.3 642.8 125.5C685.7 123.7 728.3 108.3 771.2 107.5C814 106.7 857 120.3 878.5 127.2L900 134L900 0L878.5 0C857 0 814 0 771.2 0C728.3 0 685.7 0 642.8 0C600 0 557 0 514.2 0C471.3 0 428.7 0 385.8 0C343 0 300 0 257.2 0C214.3 0 171.7 0 128.8 0C86 0 43 0 21.5 0L0 0Z" fill="#001220"></path><path d="M0 67L21.5 73.5C43 80 86 93 128.8 95.7C171.7 98.3 214.3 90.7 257.2 86.8C300 83 343 83 385.8 83.8C428.7 84.7 471.3 86.3 514.2 83.7C557 81 600 74 642.8 78.5C685.7 83 728.3 99 771.2 98.3C814 97.7 857 80.3 878.5 71.7L900 63L900 0L878.5 0C857 0 814 0 771.2 0C728.3 0 685.7 0 642.8 0C600 0 557 0 514.2 0C471.3 0 428.7 0 385.8 0C343 0 300 0 257.2 0C214.3 0 171.7 0 128.8 0C86 0 43 0 21.5 0L0 0Z" fill="#00111c"></path><path d="M0 42L21.5 41.3C43 40.7 86 39.3 128.8 38C171.7 36.7 214.3 35.3 257.2 36.8C300 38.3 343 42.7 385.8 42.7C428.7 42.7 471.3 38.3 514.2 36.2C557 34 600 34 642.8 40.2C685.7 46.3 728.3 58.7 771.2 63.3C814 68 857 65 878.5 63.5L900 62L900 0L878.5 0C857 0 814 0 771.2 0C728.3 0 685.7 0 642.8 0C600 0 557 0 514.2 0C471.3 0 428.7 0 385.8 0C343 0 300 0 257.2 0C214.3 0 171.7 0 128.8 0C86 0 43 0 21.5 0L0 0Z" fill="#000f19"></path></svg>